<svg id="Layer_2" data-name="Layer 2" xmlns="http://www.w3.org/2000/svg" viewBox="0 0 200 258"><defs><style>.cls-1{fill:#003c77;}.cls-2{fill:#fff;}.cls-3{fill:#ffcf01;}.cls-4{fill:#231f20;}</style></defs><title>logo_rgb_noText</title><path class="cls-1" d="M193.12,186.46l-2.33.2a115.66,115.66,0,0,0-41.57,11.61,109.9,109.9,0,0,0-23.36,15.52l-.93.81,21.56,23,.86-.78A76.5,76.5,0,0,1,164.75,225,81,81,0,0,1,197,216.67l3-.14-2.3-1.94c-.33-.28-7.89-6.61-15.7-9.89l9.91-16.25Z"/><path class="cls-2" d="M179.62,206.37l-1.34-.5,10.13-16.62A113.17,113.17,0,0,0,150,200.37a107.71,107.71,0,0,0-21.9,14.41l18.29,19.5a79.12,79.12,0,0,1,17-11.4,83.16,83.16,0,0,1,30.11-8.36C190.53,212.21,185,208.35,179.62,206.37Z"/><path class="cls-1" d="M157.34,207.79l-2.83-.07a76.18,76.18,0,0,0-27.78,6.09l-1.79.78,8.34,8.85.45-.21a83.19,83.19,0,0,0,19.57-12.06Z"/><path class="cls-2" d="M133.78,220.8l-5.21-5.53a74.87,74.87,0,0,1,22.87-5.38A80.71,80.71,0,0,1,133.78,220.8Z"/><path class="cls-1" d="M184.15,0H14.41V112.52c0,12.94,2.9,56.89,40.19,78.94C84.8,209.3,92.53,216.54,93,217c2.57,2.08,6.93,7.55,6.93,7.55s6.52-7.1,7.89-8.09l1.08-.92c-.12.12,5.59-5.58,36.8-24.13,37.27-22.15,40.16-66,40.16-78.93V0Z"/><path class="cls-2" d="M182.44,3.43V112.52c0,12.46-2.78,54.74-38.49,76-27.49,16.34-35.25,22.45-37,24l-.43.35a49.87,49.87,0,0,0-6.5,6.48c-1.54-2.63-5.78-6-5.78-6l0,0c-.64-.62-7.11-6.6-37.82-24.75-35.73-21.13-38.5-63.5-38.5-76V3.43Z"/><path class="cls-1" d="M100.14,207.11s4.56-5.37,39.66-26.23c33.48-19.91,34.25-61.39,34.25-68.37V12.45H26.22V112.52c0,7,.73,48.55,34.26,68.37C95.23,201.43,100.14,207.11,100.14,207.11Z"/><path class="cls-3" d="M150.82,113.33c-4.45-2.25-4.61-1.52-11.31-2.58-3.84-.61-5.77-3.25-7.06-5.65l31.69-6.72-33.4-7c4.22-1,8.87-2.4,11.58-4.77s4.67-6.94,10-7.36c5.09-.4,7.62,4.53,7.62,4.53a7.75,7.75,0,0,0-1.62-7.44C155.36,72.88,151,71,146,72.6c-4.74,1.56-4.33,2.19-9.82,6.19-3.15,2.29-6.38,1.79-9,1L144.9,52.6,116.36,71.32c2.28-3.7,4.57-8,4.82-11.57s-1.59-8.22,1.88-12.3c3.31-3.89,8.58-2.2,8.58-2.2a7.72,7.72,0,0,0-6.4-4.11c-4.54-.35-9,1.42-11.32,6.05-2.25,4.47-1.52,4.62-2.59,11.34-.59,3.73-3.07,5.65-5.4,6.94L99.61,33.14,92.1,67.62c-1-4.31-2.41-9.13-4.83-11.92s-6.93-4.68-7.35-10c-.41-5.1,4.52-7.63,4.52-7.63A7.71,7.71,0,0,0,77,39.67c-3.46,3-5.35,7.37-3.73,12.3,1.56,4.75,2.19,4.34,6.17,9.84,2.29,3.16,1.79,6.39,1,9L53.3,53.11,72,81.71c-3.69-2.28-8-4.58-11.54-4.83S52.23,78.47,48.15,75C44.27,71.68,46,66.4,46,66.4a7.73,7.73,0,0,0-4.11,6.41c-.35,4.55,1.42,9,6,11.34,4.46,2.26,4.61,1.52,11.31,2.59,3.85.61,5.77,3.25,7.07,5.65l-31.7,6.72,33.4,7c-4.22,1-8.86,2.4-11.58,4.77s-4.68,6.94-10,7.36c-5.09.4-7.62-4.53-7.62-4.53a7.74,7.74,0,0,0,1.63,7.45c3,3.46,7.35,5.37,12.28,3.74,4.74-1.57,4.33-2.2,9.82-6.19,3.15-2.29,6.37-1.79,9-1l-17.67,27.2,28.54-18.72c-2.28,3.7-4.57,8-4.82,11.58S79.13,146,75.66,150c-3.31,3.89-8.58,2.2-8.58,2.2a7.71,7.71,0,0,0,6.4,4.11c4.54.35,9-1.42,11.32-6.05,2.25-4.47,1.52-4.62,2.58-11.34.61-3.85,3.24-5.78,5.64-7.08l6.7,31.76,7-33.47c1,4.23,2.4,8.89,4.76,11.61s6.93,4.68,7.35,10c.41,5.11-4.52,7.64-4.52,7.64a7.71,7.71,0,0,0,7.43-1.63c3.46-3,5.35-7.37,3.73-12.3-1.57-4.75-2.19-4.34-6.18-9.84-2.29-3.16-1.79-6.39-1-9l27.15,17.71-18.68-28.6c3.69,2.28,8,4.58,11.55,4.83s8.2-1.6,12.28,1.88c3.89,3.32,2.19,8.6,2.19,8.6a7.74,7.74,0,0,0,4.11-6.41C157.21,120.13,155.45,115.67,150.82,113.33Z"/><path class="cls-1" d="M8.1,188.22,18,204.47c-7.81,3.28-15.37,9.61-15.7,9.89L0,216.3l3,.14a81,81,0,0,1,32.25,8.35,76.47,76.47,0,0,1,17.39,11.78l.86.78,21.56-23-.93-.81A109.89,109.89,0,0,0,50.78,198,115.65,115.65,0,0,0,9.21,186.43l-2.33-.2Z"/><path class="cls-2" d="M20.38,206.14l1.34-.5L11.59,189A113.19,113.19,0,0,1,50,200.14a107.74,107.74,0,0,1,21.9,14.41l-18.29,19.5a79.09,79.09,0,0,0-17-11.4,83.17,83.17,0,0,0-30.11-8.36C9.47,212,15,208.12,20.38,206.14Z"/><path class="cls-1" d="M100.14,227.83c-20.59,0-39.16-6.58-54.21-20.3l-1.9,0-1.38.07L26.87,230.84l.81.69A112.42,112.42,0,0,0,100.14,258a110.7,110.7,0,0,0,71.95-26.21l.8-.69-15.55-23.31-1.47,0h-2.16C139.09,221.29,120.83,227.83,100.14,227.83Z"/><path class="cls-2" d="M100.24,230.11a82.52,82.52,0,0,0,55.3-20.75l14.3,21.21a108.38,108.38,0,0,1-69.6,25A110,110,0,0,1,30.12,230.3l14.3-21.21A84.16,84.16,0,0,0,100.24,230.11Z"/><path class="cls-4" d="M50.29,220.35l7,4.3-1,1.65-5.08-3.14L48.78,227l4.86,3-1,1.65-4.86-3-3.68,6-1.88-1.16Z"/><path class="cls-4" d="M62.11,227l2,.91-6.36,14-2-.91Z"/><path class="cls-4" d="M74.62,231.75l2.23.63L78.94,249l-2.31-.65-.46-4.16-7.25-2-2.55,3.31-2.23-.63ZM75.1,234l-5,6.52,5.9,1.66Z"/><path class="cls-4" d="M90.4,236.85l-4.76-.45.18-1.93,11.71,1.1-.18,1.93-4.76-.45-1.25,13.41-2.19-.21Z"/><path class="cls-4" d="M110.84,234.88l2.18-.34,2.07,13.3,6.36-1,.3,1.92-8.53,1.34Z"/><path class="cls-4" d="M138.18,237.14c1.41,4.09.09,7-3.49,8.23s-6.4-.25-7.8-4.34L124,232.49l2.08-.72,2.83,8.27c1,2.8,2.5,4.41,5.18,3.49s2.91-3.15,1.94-5.94l-2.84-8.27,2.08-.72Z"/><path class="cls-4" d="M147.83,230.43l-8.18-3.77,2.28-1.34,6.52,3,.53-7.17,2.17-1.27-.76,9,9,4.07L157,234.35,149.75,231l-.49,7.86L147,240.21Z"/><path class="cls-1" d="M46.69,210.95A83.16,83.16,0,0,0,66.26,223l.45.21,8.34-8.85-1.79-.78a76.17,76.17,0,0,0-27.78-6.09l-2.83.07Z"/><path class="cls-2" d="M66.22,220.57,71.43,215a76.55,76.55,0,0,0-22.87-5.38A80.71,80.71,0,0,0,66.22,220.57Z"/></svg>