<svg id="Layer_2_copy_3" data-name="Layer 2 copy 3" xmlns="http://www.w3.org/2000/svg" viewBox="0 0 200 258"><defs><style>.cls-1{fill:#fff;}</style></defs><title>logo_rgb_bw_reverse</title><path class="cls-1" d="M154.51,207.73a76.18,76.18,0,0,0-27.78,6.09l-1.79.78,8.34,8.85.45-.21a83.2,83.2,0,0,0,19.57-12.06l4-3.38ZM133.78,220.8l-5.21-5.53a74.87,74.87,0,0,1,22.87-5.38A80.71,80.71,0,0,1,133.78,220.8Z"/><path class="cls-1" d="M184.15,0H14.41V112.52c0,12.94,2.9,56.89,40.19,78.94C84.8,209.3,92.53,216.54,93,217c2.57,2.08,6.93,7.55,6.93,7.55s6.52-7.1,7.89-8.09l1.08-.92c-.12.12,5.59-5.58,36.8-24.13,37.27-22.15,40.16-66,40.16-78.93V0Zm-1.71,112.52c0,12.46-2.78,54.74-38.49,76-27.49,16.34-35.25,22.45-37,24l-.43.35a49.87,49.87,0,0,0-6.5,6.48c-1.54-2.63-5.78-6-5.78-6l0,0c-.64-.62-7.11-6.6-37.82-24.75-35.73-21.13-38.5-63.5-38.5-76V3.43h164.6Z"/><path class="cls-1" d="M26.22,12.45V112.52c0,7,.73,48.55,34.26,68.37,34.76,20.55,39.66,26.23,39.66,26.23s4.56-5.37,39.66-26.23c33.48-19.91,34.25-61.39,34.25-68.37V12.45Zm113.29,98.3c6.71,1.07,6.86.33,11.31,2.58,4.64,2.34,6.4,6.79,6,11.34a7.74,7.74,0,0,1-4.11,6.41s1.7-5.27-2.19-8.6c-4.07-3.48-8.56-1.63-12.28-1.88s-7.86-2.55-11.55-4.83l18.68,28.6-27.15-17.71c-.78,2.62-1.28,5.84,1,9,4,5.51,4.61,5.09,6.18,9.84,1.62,4.93-.27,9.33-3.73,12.3a7.71,7.71,0,0,1-7.43,1.63s4.92-2.53,4.52-7.64c-.42-5.34-4.9-7.2-7.35-10s-3.76-7.38-4.76-11.61l-7,33.47L93,131.89c-2.4,1.3-5,3.22-5.64,7.08-1.07,6.72-.34,6.87-2.58,11.34-2.34,4.64-6.78,6.41-11.32,6.05a7.71,7.71,0,0,1-6.4-4.11s5.27,1.7,8.58-2.2c3.47-4.08,1.62-8.57,1.88-12.3s2.54-7.87,4.82-11.58L53.82,144.89l17.67-27.2c-2.61-.78-5.83-1.28-9,1-5.49,4-5.08,4.62-9.82,6.19-4.93,1.62-9.32-.28-12.28-3.74a7.74,7.74,0,0,1-1.63-7.45s2.53,4.93,7.62,4.53c5.34-.42,7.19-4.91,10-7.36S63.76,107.1,68,106.1l-33.4-7,31.7-6.72c-1.3-2.4-3.22-5-7.07-5.65-6.7-1.07-6.85-.33-11.31-2.59-4.63-2.34-6.4-6.79-6-11.34A7.73,7.73,0,0,1,46,66.4s-1.7,5.28,2.19,8.6c4.07,3.48,8.56,1.63,12.28,1.88S68.29,79.43,72,81.71L53.3,53.11,80.45,70.82c.78-2.61,1.28-5.84-1-9-4-5.51-4.62-5.09-6.17-9.84-1.62-4.94.27-9.33,3.73-12.3A7.71,7.71,0,0,1,84.43,38s-4.93,2.53-4.52,7.63c.42,5.34,4.9,7.21,7.35,10s3.82,7.61,4.83,11.92l7.51-34.48,6.33,32.32c2.33-1.3,4.81-3.22,5.4-6.94,1.07-6.72.33-6.87,2.59-11.34,2.33-4.64,6.78-6.4,11.32-6.05a7.72,7.72,0,0,1,6.4,4.11s-5.27-1.7-8.58,2.2c-3.48,4.08-1.62,8.57-1.88,12.3s-2.54,7.88-4.82,11.57L144.9,52.6,127.23,79.8c2.61.78,5.83,1.28,9-1,5.49-4,5.08-4.63,9.82-6.19,4.93-1.63,9.32.27,12.28,3.74a7.75,7.75,0,0,1,1.62,7.44s-2.53-4.93-7.62-4.53c-5.33.42-7.2,4.91-10,7.36s-7.36,3.76-11.58,4.77l33.4,7-31.69,6.72C133.74,107.5,135.66,110.14,139.5,110.75Z"/><path class="cls-1" d="M6.41,214.29c3.06-2.3,8.62-6.17,14-8.15l1.34-.5L11.59,189A113.18,113.18,0,0,1,50,200.14a107.74,107.74,0,0,1,21.9,14.41L66,220.77c.71.32,1.43.64,2.15.94l6.89-7.35-.93-.81A109.89,109.89,0,0,0,50.78,198,115.65,115.65,0,0,0,9.21,186.43l-2.33-.2,1.22,2L18,204.47c-7.81,3.28-15.37,9.61-15.7,9.89L0,216.3l3,.14a81,81,0,0,1,29,6.84l1.41-2.08A83.29,83.29,0,0,0,6.41,214.29Z"/><path class="cls-1" d="M200,216.53l-2.3-1.94c-.33-.28-7.89-6.61-15.7-9.89l9.91-16.25,1.22-2-2.33.2a115.66,115.66,0,0,0-41.57,11.61,109.9,109.9,0,0,0-23.36,15.52l-.93.81,6.81,7.26c.72-.3,1.44-.61,2.15-.94l-5.76-6.14A107.71,107.71,0,0,1,150,200.37a113.17,113.17,0,0,1,38.37-11.11l-10.13,16.62,1.34.5c5.34,2,10.91,5.85,14,8.15a83.28,83.28,0,0,0-27.11,7l1.39,2.09a81,81,0,0,1,29.13-6.9Z"/><path class="cls-1" d="M155.54,209.36l10.23,15.18c.7-.34,1.39-.66,2.09-1l-10.52-15.78-1.47,0h-2.16a73.5,73.5,0,0,1-19.81,13.17l1.5,1.6A80.41,80.41,0,0,0,155.54,209.36Z"/><path class="cls-1" d="M64.62,222.26l1.4-1.49a76.41,76.41,0,0,1-20.09-13.24l-1.9,0-1.38.07L32,223.28c.73.32,1.46.66,2.18,1l10.25-15.2A83.86,83.86,0,0,0,64.62,222.26Z"/><path class="cls-1" d="M169.84,230.57a108.38,108.38,0,0,1-69.6,25A110,110,0,0,1,30.12,230.3l4.05-6c-.72-.35-1.45-.69-2.18-1l-5.13,7.56.81.69A112.42,112.42,0,0,0,100.14,258a110.7,110.7,0,0,0,71.95-26.21l.8-.69-5-7.53c-.7.31-1.4.64-2.09,1Z"/><path class="cls-1" d="M100.24,230.11a84.46,84.46,0,0,0,33-6.64l-1.52-1.62a82.15,82.15,0,0,1-31.6,6,82.86,82.86,0,0,1-32-6.11l-1.42,1.52A84.61,84.61,0,0,0,100.24,230.11Z"/><path class="cls-1" d="M50.29,220.35l7,4.3-1,1.65-5.08-3.14L48.78,227l4.86,3-1,1.65-4.86-3-3.68,6-1.88-1.16Z"/><path class="cls-1" d="M62.11,227l2,.91-6.36,14-2-.91Z"/><path class="cls-1" d="M74.62,231.75l2.23.63L78.94,249l-2.31-.65-.46-4.16-7.25-2-2.55,3.31-2.23-.63ZM75.1,234l-5,6.52,5.9,1.66Z"/><path class="cls-1" d="M90.4,236.85l-4.76-.45.18-1.93,11.71,1.1-.18,1.93-4.76-.45-1.25,13.41-2.19-.21Z"/><path class="cls-1" d="M110.84,234.88l2.18-.34,2.07,13.3,6.36-1,.3,1.92-8.53,1.34Z"/><path class="cls-1" d="M138.18,237.14c1.41,4.09.09,7-3.49,8.23s-6.4-.25-7.8-4.34L124,232.49l2.08-.72,2.83,8.27c1,2.8,2.5,4.41,5.18,3.49s2.91-3.15,1.94-5.94l-2.84-8.27,2.08-.72Z"/><path class="cls-1" d="M147.83,230.43l-8.18-3.77,2.28-1.34,6.52,3,.53-7.17,2.17-1.27-.76,9,9,4.07L157,234.35,149.75,231l-.49,7.86L147,240.21Z"/><path class="cls-1" d="M73.27,213.58a76.18,76.18,0,0,0-27.78-6.09l-2.83.07,4,3.38A83.16,83.16,0,0,0,66.26,223l.45.21,8.34-8.85Zm-7,7a80.71,80.71,0,0,1-17.66-10.91A76.55,76.55,0,0,1,71.43,215Z"/></svg>